<?xml version="1.0" standalone="no"?> <!DOCTYPE svg PUBLIC "-//W3C//DTD SVG 1.0//EN" "http://www.w3.org/TR/2001/REC-SVG-20010904/DTD/svg10.dtd" > <svg xmlns="http://www.w3.org/2000/svg" width="100%" height="100%">
<defs >
<font id="gabriola_0" horiz-adv-x="1822" ><font-face
    font-family="Gabriola"
    units-per-em="4096"
    panose-1="4 4 6 5 5 16 2 2 13 2"
    ascent="2800"
    descent="-1296"
    alphabetic="0" />
<missing-glyph horiz-adv-x="1465" d="M790 686Q791 751 793 799T801 884T820 952T852 1011T901 1072T974 1145Q1032 1199 1075 1247T1148 1347T1192 1456T1207 1590Q1207 1697 1174 1785T1081 1937T936 2035T745 2070Q635 2070 547 2033T396 1929T294 1768T245
1560L428 1532Q437 1608 458 1672T517 1782T608 1855T736 1882Q799 1882 850 1858T938 1791T995 1693T1016 1574Q1016 1523 1002 1482T963 1403T905 1330T831 1256Q779 1205 739 1159T672 1057T630 933T615 768Q615 725 618 674L790 686ZM581 363Q581 335 591 311T620
269T662 241T713 231Q741 231 766 241T809 268T838 310T849 363Q849 391 839 415T810 458T766 487T713 498Q686 498 662 487T620 458T592 415T581 363ZM1465 2287V0H0V2287H1465Z" />
<glyph unicode=" " glyph-name="space" horiz-adv-x="715" />
<glyph unicode="!" glyph-name="exclam" horiz-adv-x="939" d="M446 595L426 597Q419 757 414 923T404 1253T398 1574T396 1875Q396 1981 397 2076T401 2253Q402 2275 417 2290T455 2316T506 2332T564 2337Q599 2337 639 2330T717 2308Q688 2098 661 1890T610
1471T566 1044T528 603L446 595ZM460 -41Q425 -41 396 -27T347 11T316 64T305 126Q305 171 320 205T358 262T411 297T470 309Q504 309 533 297T582 263T614 213T626 152Q626 117 615 83T582 21T529 -24T460 -41Z" />
<glyph unicode="&quot;" glyph-name="quotedbl" horiz-adv-x="1070" d="M253 1502L250 2338Q250 2354 261 2366T288 2385T325 2397T366 2401Q395 2401 426 2396T490 2377Q445 2160 412 1946T355 1509L269 1501L253 1502ZM713 1502L710 2338Q710 2354 721 2366T748
2385T785 2397T826 2401Q855 2401 886 2396T950 2377Q905 2160 872 1946T815 1509L729 1501L713 1502Z" />
<glyph unicode="#" glyph-name="numbersign" horiz-adv-x="1707" d="M633 1804Q641 1805 648 1805T662 1806Q710 1806 735 1785T761 1719Q761 1693 757 1648T747 1543T731 1408T710 1251Q798 1249 891 1248T1085 1246Q1102 1361 1118 1464T1149 1659Q1162 1737
1187 1771T1255 1806Q1271 1806 1287 1803T1326 1788Q1301 1650 1278 1517T1233 1245H1372Q1426 1245 1477 1247T1572 1258Q1581 1237 1584 1217T1587 1181Q1587 1155 1577 1139T1545 1114T1487 1102T1400 1099H1306Q1283 1099 1259 1099T1211 1100Q1195 997 1180
896T1151 688H1312Q1366 688 1417 690T1512 701Q1521 680 1524 660T1527 624Q1527 598 1517 582T1485 557T1427 545T1340 542H1237Q1211 542 1185 542T1132 543Q1096 265 1063 -30Q996 -29 969 -3T941 75Q941 100 944 145T954 252T968 387T988 546Q940 546 894
547T799 549Q751 550 703 550T607 553Q590 436 573 330T541 133Q533 88 522 57T494 8T458 -19T413 -27Q402 -27 391 -26T368 -22Q394 123 418 265T466 555Q449 556 431 556T395 556H325Q262 556 202 549T80 522Q80 580 100 614T157 667T247 690T365 696H425Q441
696 456 696T488 695Q504 798 518 902T547 1112Q526 1113 506 1113T465 1113H385Q322 1113 262 1106T140 1079Q140 1137 160 1171T217 1224T307 1247T425 1253H493Q511 1253 529 1253T566 1252Q584 1388 600 1524T633 1804ZM690 1110Q676 1008 661 904T629 694Q719
693 813 692T1007 689Q1020 789 1034 892T1064 1102L690 1110Z" />
<glyph unicode="$" glyph-name="dollar" horiz-adv-x="1551" d="M791 -252L684 -264L662 -263L671 -24H653Q587 -24 518 -16T385 11T265 57T166 126T100 219T75 337Q75 383 92 421T138 488T204 531T281 546Q312 546 341 536L350 527Q339 492 333 460T327 396Q327
336 350 285T418 195T528 133T676 106L708 961Q641 992 575 1024T449 1094T337 1175T248 1272T189 1389T167 1531Q167 1649 214 1749T341 1925T528 2051T752 2122L760 2342Q761 2364 781 2373T828 2383Q845 2383 860 2379T889 2368L880 2132H899Q1035 2132 1131
2103T1289 2027T1379 1925T1407 1816Q1407 1779 1395 1747T1358 1690T1300 1651T1220 1636Q1190 1636 1160 1642L1152 1651Q1157 1677 1159 1697T1162 1740Q1162 1814 1137 1863T1072 1941T980 1984T875 1999L845 1200L874 1187Q978 1140 1079 1090T1261 974T1391
824T1441 622Q1441 482 1389 371T1248 180T1043 51T800 -17L791 -252ZM1220 488Q1220 569 1189 632T1106 746T983 838T835 916L805 112Q890 123 965 153T1097 232T1187 344T1220 488ZM375 1647Q375 1573 401 1514T474 1407T583 1320T718 1245L747 1993Q666 1980
598 1950T481 1874T403 1772T375 1647Z" />
<glyph unicode="%" glyph-name="percent" horiz-adv-x="2965" d="M646 1033Q534 1033 437 1067T269 1172T156 1353T115 1617Q115 1766 152 1899T262 2132T444 2290T696 2349Q809 2349 904 2316T1067 2211T1174 2029T1213 1766Q1213 1617 1179 1484T1075 1250T898
1092T646 1033ZM659 1143Q746 1143 809 1185T915 1303T977 1484T998 1715Q998 1860 972 1960T900 2122T794 2213T667 2241Q581 2241 518 2199T414 2082T352 1901T331 1669Q331 1524 357 1424T429 1262T533 1171T659 1143ZM712 -154Q667 -138 648 -117T629 -58Q629
-21 654 25Q703 117 829 315T1154 808T1626 1486T2239 2336Q2266 2372 2285 2394T2321 2429T2350 2446T2377 2451Q2434 2451 2466 2385Q2234 2083 2016 1782T1584 1170T1154 530T712 -154ZM2283 -49Q2171 -49 2074 -15T1906 90T1793 271T1752 535Q1752 684 1789
817T1899 1050T2081 1208T2333 1267Q2446 1267 2541 1234T2704 1129T2811 947T2850 684Q2850 535 2816 402T2712 168T2535 10T2283 -49ZM2296 61Q2383 61 2446 103T2552 221T2614 402T2635 633Q2635 778 2609 878T2537 1040T2431 1131T2304 1159Q2218 1159 2155
1117T2051 1000T1989 819T1968 587Q1968 442 1994 342T2066 180T2170 89T2296 61Z" />
<glyph unicode="&amp;" glyph-name="ampersand" horiz-adv-x="2187" d="M1493 496Q1536 578 1555 667T1575 847Q1575 953 1544 1052T1442 1235Q1376 1243 1332 1249T1273 1261Q1251 1268 1242 1277T1233 1301Q1233 1314 1246 1328T1279 1356T1322 1381T1364 1399Q1463
1374 1535 1331Q1623 1331 1700 1333T1849 1340T1992 1354T2140 1374Q2158 1333 2158 1306Q2158 1274 2138 1255T2079 1226T1988 1212T1869 1208Q1817 1208 1762 1210T1652 1216Q1680 1177 1697 1137T1723 1059T1736 989T1739 932Q1739 804 1695 678T1573 425Q1654
356 1733 300T1884 204T2018 142T2128 120Q2187 120 2227 128T2310 150L2337 72Q2305 57 2261 38T2165 2T2059 -28T1951 -40Q1901 -40 1841 -21T1714 34T1573 121T1423 235Q1360 171 1287 118T1133 27T968 -33T794 -54Q662 -54 545 -10T340 116T201 316T149 581Q149
714 186 821T284 1015T425 1170T589 1293Q531 1422 498 1542T465 1775Q465 1890 508 1990T625 2166T795 2284T996 2328Q1079 2328 1145 2304T1259 2235T1331 2129T1356 1991Q1356 1920 1329 1837T1241 1664T1082 1484T843 1308Q902 1200 976 1091T1134 878T1309
677T1493 496ZM637 1196Q584 1152 541 1101T466 989T417 858T399 708Q399 559 445 451T565 272T733 168T923 134Q982 134 1039 146T1151 180T1253 233T1344 303Q1245 392 1146 496T955 716T781 952T637 1196ZM796 1400Q888 1454 952 1522T1057 1662T1115 1804T1133
1933Q1133 1988 1118 2035T1074 2118T1006 2174T916 2194Q847 2194 800 2166T724 2090T682 1982T669 1857Q669 1754 702 1639T796 1400Z" />
<glyph unicode="&apos;" glyph-name="quotesingle" horiz-adv-x="610" d="M253 1502L250 2338Q250 2354 261 2366T288 2385T325 2397T366 2401Q395 2401 426 2396T490 2377Q445 2160 412 1946T355 1509L269 1501L253 1502Z" />
<glyph unicode="(" glyph-name="parenleft" horiz-adv-x="1014" d="M1014 -641Q986 -675 956 -690T893 -705Q844 -705 796 -681T694 -605Q617 -530 550 -430T429 -214T332 33T260 299T215 573T200 845Q200 1101 244 1352T377 1840T597 2297T904 2712L975 2656Q831
2479 722 2277T538 1856T427 1406T389 939Q389 800 403 656T449 368T529 86T647 -180T807 -421T1012 -625L1014 -641Z" />
<glyph unicode=")" glyph-name="parenright" horiz-adv-x="1014" d="M0 2647Q28 2681 58 2696T121 2711Q170 2711 218 2687T320 2611Q397 2535 463 2436T584 2220T682 1973T754 1708T798 1434T814 1161Q814 904 770 654T637 166T417 -291T110 -706L39 -650Q183
-473 292 -271T476 150T587 600T625 1067Q625 1206 611 1350T565 1638T485 1919T366 2185T207 2426T2 2631L0 2647Z" />
<glyph unicode="*" glyph-name="asterisk" horiz-adv-x="1121" d="M944 2071Q958 2078 974 2078Q991 2078 1007 2067T1037 2035T1058 1982T1066 1909Q1012 1903 961 1896T859 1878T756 1856T648 1828Q688 1802 732 1773T817 1715T893 1663T951 1622Q967 1610 973
1597T979 1569Q979 1550 970 1531T946 1494T912 1461T871 1436Q839 1479 807 1519T742 1597T672 1674T593 1754Q590 1707 587 1655T580 1553T574 1462T567 1393Q564 1374 556 1362T537 1342T511 1333T482 1330Q450 1330 422 1340T366 1370Q387 1419 406 1466T441
1563T473 1663T503 1771Q461 1750 414 1726T323 1680T240 1640T177 1611Q163 1604 147 1604Q133 1604 117 1613T87 1643T64 1695T55 1773Q108 1779 158 1786T259 1803T360 1825T468 1852Q428 1878 384 1907T299 1964T222 2016T166 2058Q150 2070 144 2083T138 2111Q138
2129 147 2149T171 2187T205 2220T246 2244Q278 2200 309 2160T375 2081T445 2004T524 1925Q527 1972 530 2025T537 2127T543 2219T550 2289Q553 2308 561 2320T581 2340T607 2349T636 2352Q668 2352 696 2342T752 2312Q730 2263 711 2216T676 2120T644 2020T615
1913Q657 1934 704 1957T796 2002T879 2042T944 2071Z" />
<glyph unicode="+" glyph-name="plus" horiz-adv-x="1576" d="M709 39Q707 136 706 229T705 416V530Q705 559 705 587T706 643Q621 645 540 646T378 648Q312 648 248 642T120 617Q120 678 141 714T202 769T296 794T420 800Q550 800 708 797Q711 932 716 1059T730
1312Q731 1332 740 1346T765 1369T798 1382T837 1386Q862 1386 886 1381T931 1365Q923 1321 916 1260T903 1124T892 966T881 794Q966 793 1052 793T1229 792Q1286 792 1340 794T1440 805Q1449 782 1452 761T1456 722Q1456 693 1445 676T1411 649T1350 636T1259
633Q1069 633 873 639Q869 550 866 465T861 304T857 163T856 53L723 37L709 39Z" />
<glyph unicode="," glyph-name="comma" horiz-adv-x="672" d="M74 -465Q134 -434 186 -387T275 -286T334 -173T356 -62Q356 -18 344 9T315 56T276 89T238 119T208 158T196 218Q196 250 207 278T239 329T288 363T352 376Q402 376 439 354T501 297T538 216T551 124Q551
44 524 -47T442 -227T307 -392T119 -522L74 -465Z" />
<glyph unicode="-" glyph-name="hyphen" horiz-adv-x="1013" d="M917 854Q926 831 929 810T933 771Q933 742 922 725T888 698T827 685T736 682Q687 682 639 684T539 689Q488 692 439 694T338 697Q272 697 208 691T80 666Q80 727 101 763T162 818T256 843T380 849Q449
849 530 845T706 841Q763 841 817 843T917 854Z" />
<glyph unicode="." glyph-name="period" horiz-adv-x="672" d="M352 -41Q317 -41 289 -27T241 12T211 67T200 130Q200 176 215 211T255 269T310 305T369 317Q403 317 431 304T480 270T511 219T522 156Q522 120 510 85T476 22T422 -23T352 -41Z" />
<glyph unicode="/" glyph-name="slash" horiz-adv-x="1123" d="M100 -353Q172 -60 239 214T368 736T483 1199T583 1594T663 1908T723 2130Q744 2205 767 2258T817 2344T878 2392T954 2407Q1001 2407 1069 2387L1073 2378Q961 2134 857 1838T650 1195T439 456T214
-374L100 -353Z" />
<glyph unicode="0" glyph-name="zero" horiz-adv-x="1632" d="M858 1475Q997 1475 1115 1429T1319 1293T1453 1072T1502 769Q1502 644 1476 535T1404 334T1291 170T1145 48T972 -28T780 -54Q643 -54 524 -9T318 126T180 349T130 656Q130 779 156 887T229 1087T343
1250T491 1372T665 1448T858 1475ZM849 78Q945 78 1020 121T1148 242T1228 427T1256 664Q1256 755 1241 840T1196 1001T1126 1139T1031 1246T915 1316T780 1341Q694 1341 620 1302T491 1187T405 1003T374 756Q374 623 407 501T502 284T651 134T849 78Z" />
<glyph unicode="1" glyph-name="one" horiz-adv-x="937" d="M-10 1296Q116 1338 222 1369T410 1422T544 1453T615 1464Q652 1464 669 1443T687 1386Q687 1378 686 1344T681 1258T675 1141T667 1006T660 866T653 736Q648 644 644 549T635 360T629 175T625 0L407
-26L391 -25Q397 42 402 119T411 270T419 410T424 518Q429 649 435 816T442 1183Q442 1240 425 1265T368 1291Q328 1291 237 1275T10 1220L-10 1296Z" />
<glyph unicode="2" glyph-name="two" horiz-adv-x="1345" d="M85 79Q252 200 380 304T602 498T761 665T864 808T919 932T936 1042Q936 1129 905 1189T825 1286T717 1341T601 1358Q529 1358 479 1342T397 1298T351 1234T336 1157Q336 1099 360 1042T432 945L428
932Q372 903 312 903Q275 903 241 914T181 948T140 1004T124 1079Q124 1139 153 1192T230 1290T343 1370T476 1429T617 1466T751 1479Q842 1479 921 1455T1059 1386T1151 1274T1185 1124Q1185 1063 1169 999T1115 865T1012 715T849 547T617 355T305 135L307 130Q401
155 499 175T689 209T864 231T1013 239Q1068 239 1111 232T1186 208T1233 167T1250 106Q1250 60 1221 -6Q1077 8 942 14T664 20Q532 20 393 13T95 -7L85 79Z" />
<glyph unicode="3" glyph-name="three" horiz-adv-x="1353" d="M371 446Q479 484 579 537T758 663T882 827T929 1034Q929 1109 902 1169T827 1270T717 1334T582 1356Q508 1356 457 1340T373 1296T327 1232T312 1155Q312 1097 334 1043T404 950L400 937Q340 908
284 908Q246 908 214 919T157 952T120 1006T106 1081Q106 1142 134 1194T211 1291T324 1369T457 1428T598 1464T734 1477Q822 1477 903 1454T1046 1384T1144 1269T1181 1110Q1181 1031 1158 961T1094 829T1000 714T885 617T759 536T631 471L633 465Q638 466 643
466T654 466H677Q790 466 895 433T1080 336T1209 182T1258 -26Q1258 -133 1225 -227T1132 -399T993 -538T820 -642T626 -706T422 -729Q379 -729 327 -724T224 -705T124 -671T38 -620T-22 -549T-45 -455Q-45 -427 -33 -400T0 -351T50 -316T113 -302Q146 -378 192
-432T294 -522T410 -575T533 -592Q620 -592 703 -559T852 -464T956 -313T996 -112Q996 6 954 97T842 251T678 346T481 379H450Q431 379 417 378T381 375L371 446Z" />
<glyph unicode="4" glyph-name="four" horiz-adv-x="1622" d="M25 38Q204 291 331 488T546 840T688 1113T774 1325T824 1497T855 1648Q908 1648 944 1638T1004 1608T1037 1562T1047 1500Q1047 1441 1014 1355T922 1162T785 933T616 679T427 410T230 137L233 133Q424
159 604 178T956 209Q959 265 962 324T968 454T974 616T982 826Q983 861 996 887T1029 929T1074 954T1124 962Q1148 962 1172 956T1219 935Q1211 837 1205 756T1194 593T1184 422T1173 218Q1260 221 1334 221Q1389 221 1432 217T1505 200T1551 165T1567 107Q1567
60 1538 -6Q1442 2 1351 6T1165 14Q1161 -73 1158 -150T1152 -309T1146 -483T1139 -693L927 -720L911 -719Q919 -579 924 -475T934 -286T941 -130T947 19Q930 20 914 20T882 20H817Q646 20 448 14T35 -11L25 38Z" />
<glyph unicode="5" glyph-name="five" horiz-adv-x="1398" d="M1204 1448Q1237 1391 1237 1343Q1237 1264 1150 1223T906 1181Q795 1181 656 1198T346 1250Q340 1179 333 1097T315 932T293 769T266 626L270 624Q381 675 483 699T683 724Q812 724 920 683T1107
565T1229 380T1273 138Q1273 36 1248 -68T1173 -269T1052 -451T885 -598T676 -697T425 -734Q384 -734 335 -728T237 -709T141 -674T59 -621T2 -549T-20 -455Q-20 -427 -8 -400T25 -351T75 -316T138 -302Q168 -378 211 -432T306 -522T415 -575T530 -592Q605 -592
670 -567T789 -498T884 -395T954 -265T998 -119T1013 36Q1013 152 979 252T881 426T730 542T532 584Q454 584 369 563T187 493L141 559Q178 752 200 974T234 1431Q289 1428 339 1426T437 1422T532 1419T629 1418Q771 1418 911 1423T1204 1448Z" />
<glyph unicode="6" glyph-name="six" horiz-adv-x="1642" d="M549 1046Q541 1059 536 1071T530 1095Q530 1129 577 1153Q671 1201 765 1224T952 1247Q1065 1247 1167 1211T1345 1104T1467 927T1512 681Q1512 564 1485 465T1410 283T1297 139T1155 33T996 -32T827
-54Q743 -54 661 -32T504 36T365 154T255 324T182 549T155 833Q155 996 189 1158T286 1467T440 1740T641 1959T882 2104T1156 2157Q1242 2157 1306 2143T1412 2106T1476 2053T1497 1992Q1497 1974 1491 1953T1471 1912T1432 1875T1371 1848Q1329 1895 1287 1924T1201
1968T1115 1989T1029 1995Q895 1995 783 1924T590 1717T464 1385T418 940Q418 704 457 540T560 273T705 124T873 77Q962 77 1033 112T1155 213T1232 372T1259 582Q1259 644 1248 708T1213 831T1154 943T1070 1034T961 1095T826 1118Q757 1118 689 1101T549 1046Z"
/>
<glyph unicode="7" glyph-name="seven" horiz-adv-x="1562" d="M1512 1391Q1265 945 1027 419T559 -713L338 -730L321 -721Q548 -238 781 239T1260 1193Q1178 1194 1108 1194T974 1195T853 1196T741 1197H599Q520 1197 462 1193T361 1176T291 1139T245 1073T216
971T197 825L95 828L101 940Q106 1039 110 1114T123 1244T145 1335T182 1393T240 1424T323 1433Q350 1433 398 1430T511 1423T655 1416T821 1412Q907 1412 986 1412T1145 1415T1308 1421T1486 1434L1512 1391Z" />
<glyph unicode="8" glyph-name="eight" horiz-adv-x="1559" d="M1384 1740Q1384 1641 1347 1553T1249 1389T1110 1249T950 1134Q1012 1101 1072 1068T1187 997T1288 916T1369 821T1422 707T1442 570Q1442 444 1388 331T1235 132T1001 -4T699 -54Q583 -54 477 -25T289
66T159 222T110 445Q110 553 144 641T239 805T381 943T557 1066Q487 1109 425 1159T317 1271T243 1412T216 1588Q216 1721 272 1827T422 2007T637 2120T889 2160Q983 2160 1072 2134T1230 2054T1342 1923T1384 1740ZM644 1016Q581 972 528 921T435 810T373 678T351
524Q351 434 376 353T454 210T583 113T764 77Q845 77 924 100T1066 169T1167 286T1206 449Q1206 552 1166 628T1060 763T909 871T734 968L644 1016ZM436 1695Q436 1597 470 1522T562 1386T695 1278T853 1185Q929 1236 986 1288T1081 1399T1138 1523T1157 1669Q1157
1746 1135 1812T1069 1927T960 2003T807 2031Q731 2031 664 2009T546 1943T466 1838T436 1695Z" />
<glyph unicode="9" glyph-name="nine" horiz-adv-x="1629" d="M1105 377Q1113 364 1118 352T1124 328Q1124 297 1077 270Q986 219 891 198T702 176Q589 176 486 216T305 333T180 520T133 771Q133 888 160 985T236 1161T350 1299T492 1397T652 1457T821 1477Q904
1477 985 1455T1139 1387T1274 1269T1381 1100T1453 875T1479 592Q1479 484 1466 370T1424 143T1352 -80T1251 -286T1117 -466T951 -607T751 -700T515 -734Q414 -734 336 -713T203 -659T121 -586T92 -506Q92 -486 99 -465T121 -425T162 -391T225 -369Q269 -431
319 -469T421 -530T526 -561T629 -569Q780 -569 891 -495T1075 -283T1183 49T1218 483Q1218 718 1181 882T1082 1150T940 1299T775 1346Q686 1346 614 1315T492 1224T415 1075T388 871Q388 809 400 743T436 614T496 495T582 397T692 331T828 306Q897 306 965 322T1105
377Z" />
<glyph unicode=":" glyph-name="colon" horiz-adv-x="711" d="M392 -41Q357 -41 329 -27T281 12T251 67T240 130Q240 176 255 211T295 269T350 305T409 317Q443 317 471 304T520 270T551 219T562 156Q562 120 550 85T516 22T462 -23T392 -41ZM441 1039Q406 1039
378 1053T330 1092T300 1147T289 1210Q289 1256 304 1291T344 1349T399 1385T458 1397Q492 1397 520 1384T569 1350T600 1299T611 1236Q611 1200 599 1165T565 1102T511 1057T441 1039Z" />
<glyph unicode=";" glyph-name="semicolon" horiz-adv-x="711" d="M117 -465Q177 -434 229 -387T318 -286T377 -173T399 -62Q399 -18 387 9T358 56T319 89T281 119T251 158T239 218Q239 250 250 278T282 329T331 363T395 376Q445 376 482 354T544 297T581 216T594
124Q594 44 567 -47T485 -227T350 -392T162 -522L117 -465ZM441 1039Q406 1039 378 1053T330 1092T300 1147T289 1210Q289 1256 304 1291T344 1349T399 1385T458 1397Q492 1397 520 1384T569 1350T600 1299T611 1236Q611 1200 599 1165T565 1102T511 1057T441 1039Z"
/>
<glyph unicode="&lt;" glyph-name="less" horiz-adv-x="1576" d="M123 787Q225 829 337 876T565 973T795 1076T1016 1179T1217 1281T1386 1377Q1421 1357 1438 1330T1456 1279Q1456 1262 1451 1246T1429 1212T1379 1173T1289 1122T1148 1056T944 968T667 855T305
712Q502 632 654 569T922 456T1119 369T1255 302T1342 252T1390 212T1411 179T1416 146Q1416 123 1399 96T1346 48Q1274 94 1182 144T987 245T771 348T547 450T325 547T117 638L123 787Z" />
<glyph unicode="=" glyph-name="equal" horiz-adv-x="1576" d="M1444 1035Q1453 1012 1456 991T1460 952Q1460 923 1449 906T1415 879T1354 866T1263 863Q1157 863 1047 865T825 870Q713 873 602 875T382 878Q316 878 252 872T124 847Q124 908 145 944T206 999T300
1024T424 1030Q506 1030 600 1029T798 1026T1010 1023T1233 1022Q1290 1022 1344 1024T1444 1035ZM1437 576Q1446 553 1449 532T1453 493Q1453 464 1442 447T1408 420T1347 407T1256 404Q1150 404 1040 406T818 411Q706 414 595 416T375 419Q309 419 245 413T117
388Q117 449 138 485T199 540T293 565T417 571Q499 571 593 570T791 567T1003 564T1226 563Q1283 563 1337 565T1437 576Z" />
<glyph unicode="&gt;" glyph-name="greater" horiz-adv-x="1576" d="M1453 637Q1351 594 1239 547T1011 449T781 347T560 244T360 143T190 47Q155 67 138 94T120 145Q120 162 125 178T147 212T197 251T287 302T428 368T632 456T909 569T1271 712Q1074 792 922
855T654 968T457 1055T321 1122T234 1172T186 1212T165 1245T160 1278Q160 1301 177 1328T230 1376Q302 1330 393 1280T588 1179T804 1075T1028 973T1250 875T1459 786L1453 637Z" />
<glyph unicode="?" glyph-name="question" horiz-adv-x="1460" d="M790 540Q638 566 561 617T484 756Q484 797 497 833T539 910T612 1000T717 1117Q774 1179 835 1255T948 1422T1033 1618T1066 1843Q1066 1931 1037 1998T956 2109T836 2176T689 2199Q624 2199
567 2184T466 2138T398 2058T372 1942Q372 1873 402 1805T492 1682L487 1663Q424 1632 357 1632Q313 1632 274 1646T205 1688T158 1756T140 1851Q140 1927 171 1994T256 2116T379 2216T528 2290T687 2336T844 2352Q945 2352 1034 2324T1190 2240T1296 2104T1335
1916Q1335 1792 1296 1684T1194 1481T1055 1301T903 1140Q860 1096 820 1053T747 965T696 874T676 778Q676 746 685 722T712 677T756 641T817 609L790 540ZM643 -41Q607 -41 578 -27T528 11T496 64T485 126Q485 171 499 205T537 262T589 297T647 309Q683 309 712
297T762 263T794 213T806 152Q806 117 795 83T762 21T711 -24T643 -41Z" />
<glyph unicode="@" glyph-name="at" horiz-adv-x="2772" d="M1947 1409Q1938 1337 1924 1240T1895 1033T1870 810T1860 589Q1860 543 1862 491T1872 386T1894 285T1934 199T1996 140T2086 117Q2161 117 2225 166T2337 304T2412 513T2440 779Q2440 901 2418 1024T2347
1262T2223 1476T2038 1650T1789 1766T1469 1809Q1309 1809 1164 1767T895 1645T669 1453T497 1197T387 888T348 533Q348 356 387 209T495 -57T661 -265T870 -413T1110 -503T1369 -533Q1495 -533 1622 -506T1871 -424T2105 -287T2312 -95L2371 -148Q2264 -281 2137
-381T1871 -547T1586 -647T1293 -681Q1147 -681 1008 -649T744 -553T514 -394T333 -174T215 107T172 448Q172 671 225 869T371 1233T594 1531T874 1755T1192 1896T1532 1945Q1712 1945 1861 1907T2129 1798T2336 1630T2482 1413T2570 1158T2599 874Q2599 788 2585
688T2539 487T2461 293T2348 128T2198 13T2010 -30Q1941 -30 1888 -11T1795 41T1728 118T1685 214T1661 319T1654 428Q1654 528 1668 620T1701 784L1691 786Q1617 601 1536 453T1368 201T1193 42T1016 -14Q930 -14 869 28T769 139T712 300T694 489Q694 618 723
735T802 954T922 1139T1071 1280T1238 1371T1414 1403Q1495 1403 1566 1375T1706 1289L1709 1348Q1712 1396 1743 1417T1828 1438Q1859 1438 1886 1431T1947 1409ZM1702 1187Q1664 1217 1631 1237T1568 1269T1508 1286T1447 1291Q1330 1291 1234 1233T1069 1078T963
851T925 581Q925 552 927 514T937 435T956 355T987 286T1035 236T1101 217Q1150 217 1201 244T1302 318T1401 428T1492 566T1571 721T1636 883T1681 1041T1702 1187Z" />
<glyph unicode="A" glyph-name="A" horiz-adv-x="2029" d="M397 544Q361 442 335 367T288 235T253 139T225 65Q209 27 189 6T146 -24T96 -35T39 -37Q22 -37 -3 -37T-50 -35L-64 -25Q56 235 163 472T371 926Q350 959 350 981Q350 1021 414 1022Q597 1424 740 1730T992
2243Q1002 2262 1018 2274T1053 2294T1093 2304T1134 2307Q1163 2307 1191 2302T1251 2283Q1314 1936 1366 1659T1464 1164T1549 786T1626 509T1700 318T1776 200T1860 140T1956 123Q1990 123 2025 131T2102 154L2130 72Q2015 15 1910 -15T1724 -45Q1678 -45 1638
-28T1560 30T1487 142T1415 318T1341 570T1261 911Q1076 909 896 903T522 885Q483 782 452 696T397 544ZM1235 1034Q1214 1133 1190 1253T1141 1508T1090 1789T1039 2085H1033Q889 1787 776 1518T575 1023Q747 1027 908 1029T1235 1034Z" />
<glyph unicode="B" glyph-name="B" horiz-adv-x="1802" d="M559 125Q634 106 702 99T839 92Q963 92 1071 122T1258 218T1383 386T1429 632Q1429 765 1383 865T1250 1033T1034 1133T742 1167Q710 1167 677 1166T609 1162Q607 1101 604 1020T597 845T589 653T579
459T569 278T559 125ZM634 2191Q633 2126 631 2032T626 1820T620 1564T612 1273Q699 1275 784 1287T947 1325T1091 1390T1205 1488T1281 1621T1309 1796Q1309 1911 1272 1990T1171 2117T1020 2186T834 2207Q786 2207 736 2203T634 2191ZM373 1987Q373 2029 366
2059T342 2108T293 2136T214 2145Q148 2145 45 2130L35 2219Q126 2236 233 2254T453 2287T681 2311T903 2321Q990 2321 1074 2312T1233 2283T1371 2228T1480 2142T1552 2022T1578 1862Q1578 1733 1532 1633T1406 1458T1224 1333T1007 1252V1243Q1157 1232 1284
1193T1504 1082T1649 904T1702 653Q1702 531 1669 433T1576 259T1437 129T1262 40T1064 -11T854 -28Q766 -28 686 -18T514 7L320 -16L302 -14Q315 118 325 271T343 591T357 934T366 1288T371 1643T373 1987Z" />
<glyph unicode="C" glyph-name="C" horiz-adv-x="1983" d="M1265 2352Q1396 2352 1507 2328T1700 2269T1827 2194T1873 2121Q1873 2052 1868 1942T1855 1676L1768 1679Q1769 1693 1769 1705T1770 1732Q1769 1801 1755 1863T1702 1983Q1662 2040 1607 2084T1485
2158T1344 2203T1191 2219Q1057 2219 948 2178T752 2063T603 1889T498 1670T436 1422T415 1159Q415 1002 441 863T515 607T631 397T783 240T966 141T1174 107Q1250 107 1330 123T1494 175T1661 265T1830 396Q1838 392 1848 386T1868 373T1883 356T1890 338Q1890
332 1882 321Q1784 213 1684 140T1483 22T1280 -42T1075 -62Q940 -62 818 -25T590 83T400 252T255 476T163 745T130 1053Q130 1209 161 1366T255 1668T412 1937T633 2154T917 2299T1265 2352Z" />
<glyph unicode="D" glyph-name="D" horiz-adv-x="2225" d="M634 2186Q633 2136 631 2037T626 1807T619 1520T609 1202T598 878T586 574T574 315T561 125Q660 99 743 91T908 82Q1076 82 1208 124T1441 241T1612 421T1727 649T1792 913T1813 1200Q1813 1420 1765
1603T1607 1918T1321 2123T891 2197Q828 2197 764 2194T634 2186ZM31 2219Q137 2239 249 2257T475 2290T703 2312T930 2321Q1086 2321 1232 2302T1508 2236T1746 2112T1931 1919T2052 1645T2095 1280Q2095 1094 2058 924T1950 606T1777 339T1543 134T1253 2T912
-45Q818 -45 721 -32T519 8L321 -16L303 -14Q310 50 318 155T333 401T348 712T360 1081T369 1498T372 1953Q372 2001 368 2037T348 2097T299 2133T210 2145Q144 2145 41 2130L31 2219Z" />
<glyph unicode="E" glyph-name="E" horiz-adv-x="1721" d="M372 1987Q372 2029 366 2059T342 2107T293 2134T213 2143Q181 2143 141 2140T50 2130L39 2223Q137 2238 221 2249T378 2269T516 2282T637 2286Q795 2286 936 2288T1187 2293T1367 2298T1454 2301Q1500
2301 1524 2280T1549 2213Q1549 2195 1546 2143T1537 2024T1524 1881T1509 1741L1413 1744Q1415 1782 1416 1815T1417 1877Q1417 1961 1407 2013T1371 2096T1298 2137T1181 2149Q1082 2150 1007 2150T863 2151H810Q772 2151 733 2151T637 2148Q635 2065 633 1963T627
1743T621 1496T613 1228Q742 1222 842 1220T1027 1217Q1130 1217 1209 1223T1360 1244Q1376 1200 1376 1165Q1376 1136 1358 1116T1307 1084T1227 1066T1122 1060Q1019 1060 889 1071T609 1100Q607 1042 604 961T597 787T588 599T577 414T565 252T551 131Q648 145
740 151T907 158Q1012 158 1103 153T1285 147Q1345 147 1390 163T1470 222T1526 337T1562 520L1652 515Q1649 347 1628 238T1570 66T1478 -21T1356 -46Q1302 -46 1237 -36T1095 -14T929 9T736 19Q645 19 536 8T311 -31L293 -29Q308 71 319 213T340 523T355 879T365
1256T370 1633T372 1987Z" />
<glyph unicode="F" glyph-name="F" horiz-adv-x="1596" d="M372 1986Q372 2029 366 2058T342 2107T293 2134T213 2143Q181 2143 141 2140T50 2130L40 2223Q138 2238 222 2249T379 2269T517 2282T638 2286Q802 2286 946 2288T1201 2293T1383 2298T1471 2301Q1517
2301 1541 2280T1566 2213Q1566 2195 1563 2143T1554 2024T1541 1881T1526 1741L1430 1744Q1432 1782 1433 1815T1434 1877Q1434 1961 1424 2013T1388 2096T1315 2137T1198 2149Q1146 2150 1102 2150T1015 2151H810Q792 2151 774 2151T735 2151T691 2150T638 2148Q634
1979 628 1741T614 1208Q744 1202 846 1200T1034 1197Q1138 1197 1218 1203T1371 1224Q1387 1180 1387 1145Q1387 1116 1369 1096T1318 1064T1237 1047T1130 1041Q1025 1041 893 1052T610 1081Q606 958 602 825T593 555T585 278T576 0L339 -30L321 -28Q333 259
342 516T358 1016T368 1497T372 1986Z" />
<glyph unicode="G" glyph-name="G" horiz-adv-x="2053" d="M1302 2352Q1437 2352 1550 2329T1746 2272T1874 2198T1920 2126Q1920 2057 1915 1947T1901 1681L1814 1683Q1815 1697 1815 1710T1816 1737Q1815 1806 1801 1869T1748 1988Q1707 2045 1651 2088T1527
2160T1382 2204T1224 2219Q1084 2219 970 2177T766 2059T610 1881T501 1658T436 1404T415 1136Q415 949 446 798T533 528T666 325T837 184T1037 102T1257 75Q1347 75 1409 87T1510 121T1568 172T1592 235Q1600 295 1602 367T1605 510V600Q1605 674 1595 715T1557
777T1480 802T1354 807H1305Q1292 807 1275 807T1233 806L1226 904Q1242 903 1255 903T1278 903H1321Q1387 903 1461 904T1599 906T1711 909T1770 910Q1824 910 1847 883T1871 790Q1871 749 1869 687T1863 549T1856 384T1849 204Q1848 168 1844 144T1831 102T1805
73T1764 48Q1735 33 1682 16T1559 -17T1404 -43T1229 -53Q1105 -53 976 -32T724 39T494 171T305 377T177 668T130 1056Q130 1212 162 1369T260 1670T422 1938T650 2155T943 2299T1302 2352Z" />
<glyph unicode="H" glyph-name="H" horiz-adv-x="2267" d="M636 2031Q636 1989 634 1924T629 1763T622 1542T614 1252Q758 1257 891 1260T1153 1266T1413 1270T1681 1273Q1684 1375 1687 1477T1696 1692T1708 1935T1727 2223Q1728 2245 1740 2260T1772 2286T1816
2302T1864 2307Q1893 2307 1926 2300T1992 2278Q1977 2114 1966 1964T1946 1672T1932 1392T1923 1112T1919 824T1917 517Q1917 411 1926 336T1957 214T2018 144T2113 122Q2154 122 2198 128T2307 159L2335 77Q2263 46 2201 23T2086 -15T1986 -37T1898 -45Q1841
-45 1798 -24T1727 47T1684 176T1670 374V601Q1670 680 1670 751T1672 890T1674 1020T1677 1145Q1539 1145 1410 1144T1151 1140T888 1132T610 1120L576 0L339 -30L321 -28Q333 259 342 517T359 1020T369 1501T373 1982Q373 2029 367 2062T342 2117T293 2147T212
2157Q146 2157 43 2142L33 2225Q178 2262 279 2280T448 2299Q515 2299 553 2282T609 2230T632 2145T636 2031Z" />
<glyph unicode="I" glyph-name="I" horiz-adv-x="898" d="M373 1982Q373 2029 369 2062T348 2117T303 2147T224 2157Q191 2157 143 2154T43 2142L33 2225Q180 2263 285 2281T460 2299Q526 2299 561 2282T613 2230T633 2145T636 2031Q636 2009 634 1914T627 1669T616
1325T604 913T590 461T576 0L339 -30L321 -28Q333 259 342 515T359 1014T369 1494T373 1982Z" />
<glyph unicode="J" glyph-name="J" horiz-adv-x="896" d="M635 2031Q635 2004 634 1948T630 1817T625 1656T620 1483Q614 1252 606 1013T581 543T532 94T447 -309Q413 -429 367 -521T267 -682T152 -796T28 -870T-98 -910T-221 -922Q-301 -922 -368 -904T-485 -854T-561
-782T-589 -695Q-589 -670 -577 -644T-542 -596T-492 -561T-430 -547Q-369 -656 -288 -702T-112 -749Q-14 -749 57 -701T176 -562T255 -344T304 -58T332 285T349 674Q355 845 359 1007T366 1330T370 1652T372 1982Q372 2029 368 2062T347 2117T302 2147T223 2157Q206
2157 184 2156T135 2153T82 2147T28 2140L18 2223Q165 2261 277 2280T459 2299Q525 2299 560 2282T612 2230T632 2145T635 2031Z" />
<glyph unicode="K" glyph-name="K" horiz-adv-x="1941" d="M862 1265Q988 1049 1090 890T1276 613T1428 414T1554 275Q1596 233 1632 204T1703 156T1769 129T1835 121Q1875 121 1919 131T2018 158L2046 76Q1974 46 1915 24T1806 -14T1715 -37T1639 -45Q1605 -45
1575 -37T1515 -14T1455 25T1392 80Q1337 131 1265 217T1101 434T897 743T651 1156L652 1169L726 1274Q889 1506 1028 1697T1289 2025T1522 2237T1740 2312Q1786 2312 1820 2300T1876 2266T1909 2217T1920 2158Q1920 2110 1897 2062T1831 1981H1823Q1784 2023 1743
2038T1661 2054Q1580 2054 1488 1991T1295 1819T1085 1568T862 1265ZM373 1982Q373 2029 367 2062T342 2117T293 2147T212 2157Q146 2157 43 2142L33 2225Q178 2262 279 2280T448 2299Q515 2299 553 2282T609 2230T632 2145T636 2031Q636 2014 635 1955T631 1804T624
1589T616 1324T607 1020T597 690T587 346T576 0L339 -30L321 -28Q333 260 342 519T359 1023T369 1504T373 1982Z" />
<glyph unicode="L" glyph-name="L" horiz-adv-x="1654" d="M372 1982Q372 2029 368 2062T347 2117T302 2147T223 2157Q190 2157 142 2154T42 2142L32 2225Q179 2263 284 2281T459 2299Q525 2299 560 2282T612 2230T632 2145T635 2031Q635 2027 634 1965T631 1801T625
1563T617 1276T606 964T593 653T577 367T558 131Q654 145 739 151T897 158Q1000 158 1089 153T1266 147Q1327 147 1374 165T1456 228T1512 350T1547 546L1634 539Q1633 363 1613 250T1554 71T1462 -20T1337 -46Q1284 -46 1220 -36T1081 -14T917 9T727 19Q636 19
530 8T311 -31L293 -29Q310 108 322 265T343 593T358 941T367 1297T371 1648T372 1982Z" />
<glyph unicode="M" glyph-name="M" horiz-adv-x="2637" d="M2697 74Q2625 43 2565 21T2452 -16T2355 -38T2268 -45Q2211 -45 2168 -24T2097 47T2054 176T2040 374V462Q2040 524 2040 605T2042 778T2044 965T2048 1148T2052 1314T2056 1445Q2061 1562 2067 1678T2085
1907L2077 1910Q2060 1865 2036 1808T1975 1669Q1887 1475 1796 1267T1611 843T1422 404T1233 -41L1184 -39Q1163 29 1133 121T1067 321T991 548T908 790T824 1035T742 1270T667 1482T603 1660Q571 1751 548 1821T507 1945L500 1942Q500 1912 500 1883T501 1819V1654Q501
1495 496 1330T483 1004T464 693T441 416Q431 311 423 238T404 114T378 36T341 -8T286 -27T208 -31H178Q169 -31 156 -31T124 -29L110 -19Q157 78 193 197T257 451T305 728T338 1015T360 1297T373 1561T378 1792T380 1977Q380 2028 373 2061T349 2113T301 2140T222
2148Q189 2148 146 2144T51 2131L40 2219Q223 2261 341 2281T529 2302Q565 2302 591 2296T636 2274T671 2233T700 2169Q753 2021 812 1854T932 1513T1055 1165T1174 826Q1196 761 1214 708T1248 609T1277 522T1303 439H1310Q1326 482 1343 523T1379 609T1420 705T1471
820Q1541 980 1616 1152T1771 1504T1933 1869T2098 2240Q2107 2260 2122 2273T2156 2293T2195 2304T2232 2307Q2261 2307 2295 2300T2362 2278Q2347 2114 2336 1964T2316 1672T2302 1392T2293 1112T2289 824T2287 517Q2287 411 2296 336T2327 214T2388 144T2483
122Q2504 122 2523 123T2564 127T2610 138T2669 156L2697 74Z" />
<glyph unicode="N" glyph-name="N" horiz-adv-x="2164" d="M695 2128Q741 2046 799 1946T924 1734T1061 1503T1206 1264T1352 1027T1491 803T1619 601T1729 433Q1729 701 1730 921T1734 1318T1741 1632T1751 1873T1766 2049T1786 2169Q1795 2209 1811 2235T1849
2278T1896 2300T1950 2307Q2017 2307 2089 2278V2268Q2040 2199 2005 2088T1944 1842T1904 1556T1879 1259T1866 975T1858 732Q1856 638 1854 549T1851 370T1848 189T1847 0L1725 -16L1707 -14Q1677 28 1631 98T1526 260T1401 459T1261 684T1113 923T965 1165T822
1399T691 1613T580 1797T495 1938Q493 1717 489 1508T477 1105T462 739T443 416Q436 311 429 237T411 114T385 35T346 -8T291 -27T215 -31H188Q180 -31 168 -31T137 -29L123 -19Q166 78 199 198T258 452T301 730T332 1018T351 1301T363 1567T368 1801T369 1989Q369
2032 363 2062T339 2112T291 2141T213 2150Q179 2150 137 2146T40 2134L29 2222Q113 2241 181 2256T304 2281T403 2296T484 2302Q521 2302 548 2293T599 2264T645 2211T695 2128Z" />
<glyph unicode="O" glyph-name="O" horiz-adv-x="2172" d="M1045 -55Q844 -55 676 15T387 223T198 566T130 1044Q130 1216 158 1380T242 1689T381 1956T575 2166T824 2303T1127 2352Q1328 2352 1496 2282T1785 2074T1974 1730T2042 1253Q2042 1081 2014 917T1930
608T1791 341T1597 131T1348 -6T1045 -55ZM1090 75Q1206 75 1301 113T1470 220T1600 387T1690 605T1743 865T1761 1157Q1761 1429 1708 1629T1562 1961T1348 2157T1087 2222Q971 2222 876 2184T707 2077T577 1910T487 1692T434 1432T416 1140Q416 868 469 668T615
336T829 140T1090 75Z" />
<glyph unicode="P" glyph-name="P" horiz-adv-x="1697" d="M373 1987Q373 2029 366 2059T342 2108T293 2136T214 2145Q148 2145 45 2130L33 2219Q127 2236 238 2254T467 2287T703 2311T931 2321Q1075 2321 1201 2295T1422 2207T1572 2039T1627 1777Q1627 1594
1566 1449T1393 1202T1127 1048T783 994Q741 994 724 1007T707 1063V1076Q707 1086 708 1091Q855 1091 960 1121T1138 1202T1253 1317T1319 1450T1349 1586T1356 1707Q1356 1852 1316 1948T1206 2102T1043 2182T845 2206Q792 2206 744 2202T638 2191Q636 2114 633
1985T625 1689T614 1322T602 905T589 458T575 0L338 -30L320 -28Q332 259 342 516T358 1016T369 1498T373 1987Z" />
<glyph unicode="Q" glyph-name="Q" horiz-adv-x="2172" d="M3855 -451Q3756 -588 3655 -683T3452 -837T3247 -924T3040 -951Q2923 -951 2805 -922T2569 -845T2334 -732T2102 -598T1874 -455T1652 -317T1436 -198T1229 -111Q1173 -93 1122 -82T1022 -62T927 -47T838
-31Q679 1 549 84T325 303T181 623T130 1044Q130 1216 158 1380T242 1689T381 1956T575 2166T824 2303T1127 2352Q1328 2352 1496 2282T1785 2074T1974 1730T2042 1253Q2042 1100 2020 954T1954 677T1844 431T1690 227T1493 75T1252 -17V-25Q1363 -48 1478 -90T1710
-185T1947 -298T2186 -417T2427 -531T2668 -627T2906 -694T3142 -719Q3230 -719 3315 -703T3484 -650T3648 -554T3804 -411L3855 -451ZM1090 75Q1206 75 1301 113T1470 220T1600 387T1690 605T1743 865T1761 1157Q1761 1429 1708 1629T1562 1961T1348 2157T1087
2222Q971 2222 876 2184T707 2077T577 1910T487 1692T434 1432T416 1140Q416 868 469 668T615 336T829 140T1090 75Z" />
<glyph unicode="R" glyph-name="R" horiz-adv-x="1935" d="M373 1987Q373 2029 366 2059T342 2108T293 2136T214 2145Q148 2145 45 2130L33 2219Q126 2236 236 2254T463 2287T697 2311T923 2321Q1068 2321 1192 2296T1407 2211T1550 2054T1602 1813Q1602 1680
1559 1570T1436 1372T1243 1223T991 1125Q1095 947 1180 812T1336 576T1466 402T1577 276Q1618 233 1654 204T1723 156T1791 130T1862 122Q1902 122 1938 130T2017 154L2045 72Q1918 14 1820 -14T1656 -43Q1623 -43 1593 -36T1534 -13T1476 25T1414 81Q1360 132
1289 219T1129 438T930 750T690 1166L692 1179Q869 1186 991 1228T1188 1342T1298 1513T1332 1736Q1332 1972 1208 2089T841 2206Q789 2206 742 2202T638 2191Q636 2114 633 1985T625 1689T614 1322T602 905T589 458T575 0L338 -30L320 -28Q332 259 342 516T358
1016T369 1498T373 1987Z" />
<glyph unicode="S" glyph-name="S" horiz-adv-x="1440" d="M205 588Q202 564 201 542T200 498Q200 384 230 305T317 175T453 103T632 80Q731 80 820 107T976 190T1084 326T1124 515Q1124 583 1106 639T1055 743T978 831T881 906T770 974T652 1040Q589 1074 527
1110T407 1187T301 1275T217 1381T161 1509T140 1664Q140 1770 167 1861T242 2029T358 2166T506 2267T678 2330T866 2352Q910 2352 960 2347T1060 2330T1155 2304T1236 2268T1292 2224T1313 2173Q1313 2144 1312 2101T1310 2002T1305 1881T1298 1742L1197 1747Q1200
1783 1200 1816Q1200 1915 1171 1990T1088 2116T959 2192T791 2218Q699 2218 620 2188T482 2103T391 1973T358 1808Q358 1735 377 1676T429 1566T509 1475T609 1398T723 1328T844 1262Q907 1229 969 1194T1089 1120T1194 1034T1278 931T1334 806T1355 655Q1355
518 1318 412T1217 228T1073 95T903 8T727 -39T564 -54Q465 -54 378 -41T226 -5T123 45T85 104Q85 171 89 296T104 593L205 588Z" />
<glyph unicode="T" glyph-name="T" horiz-adv-x="1682" d="M114 1709L15 1712Q12 1833 12 1927Q12 2024 21 2093T58 2208T141 2274T286 2295Q343 2295 417 2292T573 2286T741 2280T909 2277Q1045 2277 1149 2277T1334 2279T1476 2282T1587 2288T1681 2297T1770
2311Q1787 2263 1787 2232Q1787 2166 1732 2131T1567 2096Q1464 2096 1325 2108T1010 2133Q1007 1985 1003 1817T993 1470T983 1103T971 728T960 356T949 0L712 -30L694 -28Q702 163 709 338T722 683T733 1020T741 1367T746 1737T748 2147Q691 2149 632 2150T512
2152Q451 2152 398 2150T301 2136T222 2099T163 2027T127 1908T114 1732V1709Z" />
<glyph unicode="U" glyph-name="U" horiz-adv-x="2297" d="M2023 2278Q2003 2056 1989 1855T1964 1462T1950 1083T1945 702Q1945 552 1949 442T1971 260T2027 153T2132 118Q2172 118 2222 126T2341 161L2367 82Q2313 54 2256 31T2145 -9T2040 -35T1950 -45Q1875
-45 1828 -15T1755 69T1719 198T1709 363Q1709 462 1714 572T1727 800L1717 802Q1685 705 1640 604T1537 407T1409 229T1255 82T1075 -17T868 -53Q752 -53 666 -21T518 67T416 202T353 372T321 568T312 778Q312 893 320 1020T339 1276T365 1524T390 1744T410 1916T418
2020Q418 2054 412 2080T389 2123T341 2148T263 2157Q229 2157 186 2153T87 2141L76 2226Q229 2262 333 2281T507 2300Q557 2300 590 2290T642 2257T670 2202T678 2122Q678 2095 670 2023T650 1849T624 1622T597 1361T577 1087T569 822Q569 743 573 662T592 507T632
368T700 255T803 180T950 152Q1051 152 1145 197T1321 324T1473 519T1594 767T1676 1054T1715 1367Q1718 1428 1720 1486T1725 1604T1731 1730T1738 1869T1747 2030T1760 2219Q1761 2241 1773 2257T1803 2285T1845 2301T1892 2307Q1921 2307 1956 2300T2023 2278Z"
/>
<glyph unicode="V" glyph-name="V" horiz-adv-x="1871" d="M531 2055Q568 1938 612 1774T706 1386T813 874T932 222H938Q1031 402 1119 580T1286 926T1429 1250T1541 1542T1614 1790T1640 1986Q1640 2197 1501 2317L1509 2335Q1528 2338 1548 2340T1589 2342Q1640
2342 1689 2330T1778 2288T1841 2210T1866 2088Q1866 2023 1835 1909T1746 1642T1605 1301T1417 900T1190 452T928 -29L764 -42L743 -39Q588 754 479 1250T291 1954Q271 2007 250 2045T202 2107T139 2142T50 2153Q17 2153 -23 2149T-114 2136L-125 2225Q30 2264
134 2285T309 2306Q360 2306 393 2292T449 2247T491 2169T531 2055Z" />
<glyph unicode="W" glyph-name="W" horiz-adv-x="2911" d="M1900 -38L1879 -35Q1850 149 1822 308T1765 608T1709 876T1655 1122Q1618 1288 1589 1428T1528 1698H1521Q1481 1553 1440 1419T1356 1153T1266 888T1167 611T1057 311T932 -24L760 -38L739 -35Q581
764 468 1261T287 1957Q269 2011 249 2048T202 2110T139 2145T51 2156Q18 2156 -21 2152T-109 2139L-120 2228Q35 2266 137 2286T307 2307Q360 2307 394 2293T453 2246T495 2163T533 2039Q562 1935 602 1776T692 1399T798 907T917 296H924Q974 432 1027 584T1136
897T1246 1225T1354 1558T1456 1888T1550 2204Q1555 2222 1574 2230T1615 2238Q1637 2238 1655 2232Q1681 2132 1714 1995T1783 1697T1857 1359T1933 999T2006 637T2071 293H2076Q2148 443 2219 604T2356 927T2478 1244T2576 1539T2641 1795T2665 1996Q2665 2045
2657 2095T2631 2189T2588 2269T2525 2326L2529 2345Q2549 2348 2569 2350T2609 2352Q2665 2352 2716 2338T2806 2294T2868 2216T2891 2101Q2891 2050 2873 1967T2822 1774T2741 1535T2637 1258T2513 954T2374 632T2225 303T2070 -24L1900 -38Z" />
<glyph unicode="X" glyph-name="X" horiz-adv-x="1956" d="M688 2135Q775 1943 861 1748T1038 1350Q1095 1443 1151 1539T1267 1740T1393 1963T1536 2217Q1552 2245 1569 2262T1605 2290T1647 2303T1696 2307Q1734 2307 1781 2295T1873 2250Q1770 2134 1667 2003T1466
1736T1277 1463T1106 1200Q1217 959 1321 725T1531 274Q1554 227 1580 198T1634 151T1693 128T1755 121Q1800 121 1846 131T1942 159L1970 77Q1844 23 1737 -11T1552 -45Q1517 -45 1487 -39T1429 -15T1378 33T1332 112Q1232 327 1134 550T933 1000Q834 839 748
690T589 412T460 177T364 0L40 -38L30 -27Q181 174 303 341T526 650T710 915T867 1150Q815 1262 765 1374T666 1594T570 1806T478 2003Q457 2047 435 2076T388 2122T331 2146T261 2153Q193 2153 98 2137L87 2225Q238 2263 337 2284T498 2306Q537 2306 563 2296T610
2266T649 2213T688 2135Z" />
<glyph unicode="Y" glyph-name="Y" horiz-adv-x="1678" d="M461 2203Q478 2170 503 2115T558 1989T621 1836T689 1667T756 1493T818 1324Q844 1250 862 1191T896 1072H902Q949 1183 998 1296T1095 1518T1189 1730T1277 1921T1355 2084T1419 2210Q1437 2244 1456
2263T1496 2292T1542 2304T1593 2307Q1608 2307 1627 2304T1665 2296T1703 2282T1737 2263Q1590 2066 1477 1890T1281 1565T1140 1299T1048 1104Q1024 1051 1007 1003T979 897T960 770T948 603Q945 540 943 474T937 334T932 179T926 0L689 -30L671 -28Q678 105
683 233T692 469T697 657T699 774Q699 837 690 905T658 1049Q634 1132 601 1225T532 1412T456 1598T381 1770T314 1916T262 2023Q244 2060 224 2085T179 2125T124 2146T54 2153Q18 2153 -21 2149T-106 2138L-117 2227Q34 2265 133 2285T296 2306Q359 2306 396 2282T461
2203Z" />
<glyph unicode="Z" glyph-name="Z" horiz-adv-x="1808" d="M202 1761Q206 1871 209 1954T220 2097T240 2198T276 2263T334 2297T420 2307Q450 2307 505 2304T642 2297T835 2290T1087 2286Q1164 2286 1233 2286T1376 2289T1531 2295T1717 2308L1743 2265Q1678 2169
1601 2051T1439 1799T1264 1520T1082 1226T900 928T725 637T563 364T420 121Q623 146 770 152T1024 158Q1086 158 1136 157T1228 153T1307 149T1379 147Q1440 147 1487 165T1569 228T1625 350T1660 546L1747 539Q1746 363 1726 250T1667 71T1575 -20T1450 -46Q1409
-46 1369 -41T1283 -29T1186 -13T1070 3T927 15T747 20Q681 20 608 18T452 9T272 -6T62 -30L35 8Q104 110 184 233T351 493T529 776T711 1071T892 1367T1063 1653T1220 1916T1355 2146Q1274 2147 1203 2148T1069 2150T948 2151T836 2152H694Q616 2152 559 2148T460
2130T391 2090T345 2020T317 1912T298 1758L202 1761Z" />
<glyph unicode="[" glyph-name="bracketleft" horiz-adv-x="1083" d="M981 2569L769 2564Q713 2562 679 2558T626 2541T599 2506T586 2445Q583 2422 578 2357T568 2192T556 1963T545 1681T534 1358T526 1005Q523 849 522 705T521 425Q521 254 522 108T526 -150T531
-336T536 -435Q539 -472 546 -495T572 -530T625 -548T715 -554L927 -559L931 -669H399Q359 -669 340 -647T320 -588Q320 -562 322 -491T328 -312T336 -61T346 249T356 608T365 1005Q370 1316 372 1587T375 2071V2501Q375 2536 375 2560T376 2598Q377 2635 397 2657T457
2679H989L981 2569Z" />
<glyph unicode="\" glyph-name="backslash" horiz-adv-x="1103" d="M939 -374Q821 63 714 456T504 1195T296 1837T80 2378L84 2387Q152 2407 199 2407Q241 2407 274 2392T335 2344T386 2258T430 2130Q454 2044 489 1908T570 1594T669 1200T785 736T913 215T1053
-353L939 -374Z" />
<glyph unicode="]" glyph-name="bracketright" horiz-adv-x="1082" d="M110 -559L322 -554Q378 -553 412 -548T465 -531T492 -495T505 -435Q508 -412 513 -347T523 -182T535 47T546 329T557 652T565 1005Q568 1165 569 1314T570 1602Q570 1769 569 1912T565 2166T560
2348T555 2445Q552 2483 545 2505T519 2540T466 2557T376 2564L164 2569L160 2679H692Q732 2679 751 2657T771 2598Q771 2572 769 2501T762 2322T753 2071T743 1761T734 1402T726 1005Q720 694 718 423T716 -61V-311Q716 -420 716 -491T715 -588Q714 -625 694 -647T634
-669H102L110 -559Z" />
<glyph unicode="^" glyph-name="asciicircum" horiz-adv-x="1488" d="M754 2113Q674 1911 610 1754T495 1479T404 1276T334 1135T279 1045T236 994T199 971T165 966Q154 966 140 969T111 981T83 1001T60 1032Q108 1105 160 1195T267 1388T375 1601T483 1825T586
2052T681 2273Q690 2294 714 2301T767 2309Q816 2309 843 2298Q884 2189 929 2074T1022 1842T1119 1613T1218 1396T1315 1199T1408 1032Q1398 1014 1385 1002T1356 981T1327 970T1301 966Q1278 966 1256 976T1205 1023T1140 1135T1049 1336T924 1653T754 2113Z"
/>
<glyph unicode="_" glyph-name="underscore" horiz-adv-x="650" d="M429 -420Q269 -420 128 -431T-130 -471Q-130 -433 -119 -404T-79 -354T-2 -318T118 -296T289 -284T521 -280Q570 -280 614 -280T701 -278T784 -273T868 -263Q878 -284 882 -304T886 -336Q886
-386 824 -403T630 -420H429Z" />
<glyph unicode="`" glyph-name="grave" horiz-adv-x="800" d="M613 1547Q564 1597 513 1655T412 1773T318 1893T242 2004T190 2096T170 2160Q170 2180 177 2204T197 2253T227 2301T265 2344L310 2334Q366 2160 452 1973T669 1593L613 1547Z" />
<glyph unicode="a" glyph-name="a" horiz-adv-x="1465" d="M959 1028Q959 1107 933 1165T865 1260T770 1315T664 1333Q593 1333 544 1318T465 1277T421 1216T407 1139Q407 1091 424 1043T476 948L472 937Q415 909 357 909Q323 909 294 919T243 950T209 999T196
1064Q196 1123 224 1175T300 1270T409 1347T537 1404T669 1440T793 1453Q898 1453 972 1425T1093 1344T1161 1214T1183 1042Q1183 976 1178 897T1165 732T1153 553T1147 370Q1147 226 1200 154T1341 81Q1418 81 1513 138L1542 95Q1475 28 1396 -7T1230 -42Q1165
-42 1110 -20T1015 45T953 155T931 308Q931 334 932 360T939 415H933Q890 329 834 246T710 97T566 -9T405 -50Q336 -50 279 -26T182 40T119 139T96 265Q96 353 128 425T218 554T356 652T530 721T729 762T943 776Q950 839 954 898T959 1028ZM345 341Q345 302 353
267T380 204T427 162T496 146Q541 146 589 167T683 225T772 313T849 426T905 554T935 693Q861 691 788 684T650 660T528 618T432 554T368 463T345 341Z" />
<glyph unicode="b" glyph-name="b" horiz-adv-x="1636" d="M618 2684Q599 2524 580 2354T544 2010T510 1660T480 1313T456 977T440 661L451 660Q530 854 621 1002T806 1250T992 1401T1167 1452Q1236 1452 1289 1427T1381 1359T1446 1261T1488 1145T1510 1022T1517
906Q1517 757 1488 628T1406 392T1283 202T1129 62T954 -24T769 -54Q707 -54 645 -40T523 3T410 77T315 185Q280 97 244 41T177 -49L125 -36Q180 117 206 331T246 817Q251 933 258 1081T274 1393T291 1728T309 2062T326 2369T341 2626Q342 2650 356 2667T391 2695T438
2711T491 2716Q552 2716 618 2684ZM1273 809Q1273 877 1263 949T1230 1079T1171 1175T1082 1213Q1021 1213 962 1183T847 1101T740 982T645 840T565 691T504 547T464 424T450 335Q465 273 496 223T572 137T671 82T787 63Q887 63 975 113T1130 260T1234 494T1273
809Z" />
<glyph unicode="c" glyph-name="c" horiz-adv-x="1252" d="M954 1027Q982 1082 982 1139Q982 1178 969 1212T928 1273T861 1315T766 1331Q688 1331 626 1304T517 1228T436 1117T381 982T349 835T339 687Q339 558 372 453T463 273T596 157T758 116Q849 116 942
163T1124 317Q1130 314 1139 309T1157 296T1171 282T1177 269Q1177 265 1176 264L1174 260Q1077 103 941 25T643 -53Q555 -53 481 -29T347 39T242 142T166 271T120 417T104 572Q104 677 127 782T194 985T302 1167T446 1314T624 1412T831 1448Q913 1448 984 1428T1106
1372T1187 1284T1217 1169Q1217 1128 1205 1097T1170 1043T1117 1009T1050 997Q1028 997 1005 1001T958 1016L954 1027Z" />
<glyph unicode="d" glyph-name="d" horiz-adv-x="1732" d="M1574 2684Q1538 2430 1505 2164T1447 1634T1407 1114T1392 623Q1392 510 1394 429T1402 292T1417 203T1441 152T1475 129T1520 123Q1568 123 1623 137T1736 178L1755 126Q1719 97 1665 67T1550 12T1433
-28T1333 -44Q1302 -44 1279 -37T1240 -13T1212 34T1193 108Q1184 168 1179 248T1173 422Q1173 522 1180 625T1205 832L1196 834Q1119 631 1029 467T842 187T649 9T463 -54Q373 -54 308 -9T202 111T140 282T120 481Q120 604 147 723T224 950T346 1148T505 1306T695
1409T911 1447Q990 1447 1068 1427T1225 1361Q1230 1531 1237 1706T1255 2048T1277 2362T1303 2626Q1306 2650 1319 2667T1352 2695T1397 2711T1448 2716Q1508 2716 1574 2684ZM1215 1275Q1080 1339 947 1339Q850 1339 769 1308T622 1223T508 1095T427 937T379
761T362 580Q362 548 365 507T376 421T399 334T434 257T484 203T554 182Q626 182 701 236T847 379T982 583T1095 819T1176 1059T1215 1275Z" />
<glyph unicode="e" glyph-name="e" horiz-adv-x="1262" d="M1137 310Q1143 307 1152 302T1170 290T1184 276T1190 261Q1190 257 1187 253Q1131 175 1067 118T933 22T791 -35T649 -54Q529 -54 429 -5T257 129T145 328T104 574Q104 681 127 788T195 992T304 1172T449
1317T628 1414T838 1449Q912 1449 979 1429T1096 1372T1177 1279T1207 1154Q1207 1052 1141 976T957 847T682 762T339 713V696Q339 568 371 462T461 281T595 163T761 121Q851 121 945 165T1137 310ZM949 1113Q949 1159 934 1199T891 1268T825 1315T743 1332Q678
1332 625 1309T530 1247T456 1155T402 1043T365 922T345 801Q487 811 599 835T789 898T908 990T949 1113Z" />
<glyph unicode="f" glyph-name="f" horiz-adv-x="948" d="M560 1372Q610 1370 656 1369T743 1368T816 1367T872 1366Q918 1366 959 1369T1029 1375Q1040 1337 1040 1315Q1040 1271 1004 1257T898 1243Q829 1243 744 1250T557 1265Q553 1146 547 1006T532 716T508
412T474 110T425 -170T360 -413Q301 -584 227 -698T70 -882T-103 -981T-282 -1011Q-359 -1011 -424 -994T-538 -948T-613 -881T-641 -799Q-641 -775 -630 -752T-600 -710T-554 -681T-496 -669Q-467 -721 -432 -757T-357 -817T-274 -852T-187 -863Q-72 -863 8 -789T143
-578T229 -248T276 181T298 692T306 1268Q212 1267 132 1261T-2 1235Q-6 1244 -6 1254Q-6 1278 17 1298T81 1335T181 1361T311 1374Q315 1468 321 1553T336 1722T360 1890T395 2064Q422 2181 465 2274T562 2440T680 2565T811 2650T947 2699T1082 2715Q1179 2715
1254 2690T1382 2623T1462 2529T1490 2423Q1490 2381 1477 2348T1440 2293T1385 2258T1319 2246Q1273 2246 1222 2269L1218 2280Q1237 2324 1246 2357T1256 2425Q1256 2473 1237 2507T1186 2564T1116 2596T1039 2606Q927 2606 850 2556T721 2419T639 2213T594 1957T572
1671T560 1372Z" />
<glyph unicode="g" glyph-name="g" horiz-adv-x="1538" d="M1200 1247Q1251 1174 1271 1100T1291 950Q1291 871 1270 796T1209 653T1114 529T990 431T844 366T681 343Q659 343 638 345T593 350Q558 343 529 329T478 296T444 256T432 212Q432 168 466 137T559 83T693
43T853 7Q928 -9 1001 -26T1140 -65T1262 -116T1359 -185T1423 -277T1446 -399Q1446 -486 1415 -566T1326 -717T1190 -845T1016 -944T814 -1008T592 -1031Q526 -1031 453 -1022T309 -992T174 -939T60 -860T-19 -754T-48 -617Q-48 -553 -27 -494T29 -384T112 -289T211
-210T318 -150T424 -109L426 -104Q389 -88 354 -68T290 -19T244 44T226 125Q226 176 249 216T309 288T388 343T471 383Q394 413 334 460T232 567T168 697T146 845Q146 976 197 1087T334 1280T535 1407T775 1453Q823 1453 863 1446T937 1429T999 1406T1053 1381Q1091
1362 1127 1348T1212 1333Q1252 1333 1289 1346T1354 1383T1398 1443T1415 1524Q1415 1531 1415 1537T1413 1551L1426 1560Q1495 1528 1528 1481T1562 1385Q1562 1347 1547 1318T1505 1267T1439 1235T1355 1224Q1285 1224 1204 1252L1200 1247ZM542 -151Q471 -170
408 -206T295 -293T218 -411T189 -555Q189 -651 231 -720T341 -836T492 -904T656 -926Q766 -926 866 -893T1041 -800T1161 -659T1206 -482Q1206 -428 1184 -390T1124 -323T1032 -274T916 -237Q831 -214 737 -195T542 -151ZM748 454Q802 454 845 472T923 522T981
594T1020 681T1043 774T1051 866Q1051 921 1042 977T1013 1087T965 1186T896 1266T807 1321T696 1341Q639 1341 594 1323T513 1274T454 1203T414 1117T391 1024T383 934Q383 879 393 822T423 711T473 611T544 529T636 474T748 454Z" />
<glyph unicode="h" glyph-name="h" horiz-adv-x="1698" d="M427 531Q504 784 590 960T766 1245T945 1404T1115 1453Q1171 1453 1223 1432T1315 1365T1380 1249T1404 1079Q1404 1049 1401 998T1392 883T1381 749T1369 611T1361 482T1357 377Q1357 299 1363 250T1385
173T1425 134T1486 123Q1538 123 1594 137T1707 178L1726 126Q1690 97 1635 67T1520 12T1399 -28T1293 -44Q1239 -44 1208 -15T1162 64T1142 181T1137 325Q1137 418 1143 517T1157 707T1171 873T1178 995Q1178 1106 1135 1161T1019 1217Q962 1217 898 1168T770
1034T647 832T541 580T463 296T424 0L211 -26L195 -25Q201 93 208 235T224 538T242 871T261 1225T281 1588T300 1949T319 2299T336 2626Q337 2650 350 2667T383 2695T430 2711T484 2716Q544 2716 610 2684Q587 2480 569 2310T537 1994T511 1722T490 1481T472 1255T456
1032T440 796T421 532L427 531Z" />
<glyph unicode="i" glyph-name="i" horiz-adv-x="787" d="M430 1859Q395 1859 368 1873T322 1911T293 1965T283 2028Q283 2073 298 2107T337 2165T390 2200T447 2212Q481 2212 508 2200T554 2165T584 2115T595 2053Q595 2018 583 1984T550 1921T498 1876T430 1859ZM517
1407Q500 1293 488 1179T469 957T458 755T454 582Q454 478 457 404T467 278T484 197T510 150T546 128T593 123Q641 123 696 137T809 178L828 126Q792 97 738 67T623 12T506 -28T406 -44Q378 -44 355 -40T314 -17T281 36T257 131T242 281T237 499Q237 574 238 668T243
871T251 1100T264 1349Q266 1377 279 1394T311 1421T351 1434T391 1438Q458 1438 517 1407Z" />
<glyph unicode="j" glyph-name="j" horiz-adv-x="728" d="M399 1856Q365 1856 338 1870T292 1909T263 1963T253 2026Q253 2072 268 2106T306 2164T358 2200T415 2212Q449 2212 476 2199T522 2165T551 2114T562 2052Q562 2017 551 1982T518 1919T466 1874T399 1856ZM508
1407Q505 1258 502 1101T491 783T473 464T444 152T401 -143T339 -412Q291 -583 217 -698T57 -882T-122 -981T-300 -1011Q-377 -1011 -441 -994T-552 -946T-625 -877T-651 -795Q-651 -771 -639 -746T-607 -701T-559 -667T-500 -654Q-442 -758 -364 -802T-196 -846Q-132
-846 -76 -824T29 -744Q104 -657 148 -482T216 -45T246 565T255 1349Q255 1377 268 1394T300 1421T341 1434T382 1438Q449 1438 508 1407Z" />
<glyph unicode="k" glyph-name="k" horiz-adv-x="1591" d="M681 644Q801 684 900 735T1070 844T1181 966T1220 1097Q1220 1125 1210 1148T1182 1188T1141 1214T1090 1223Q1027 1223 960 1184T826 1071T696 890T579 647T482 348T413 0L211 -26L195 -25Q201 93 208
235T224 538T242 871T261 1225T281 1588T300 1949T319 2299T336 2626Q337 2650 350 2667T383 2695T430 2711T484 2716Q544 2716 610 2684Q587 2479 569 2308T537 1991T510 1717T489 1473T471 1245T454 1018T438 780T419 516L425 515Q461 634 510 750T618 970T745
1163T887 1316T1040 1416T1200 1453Q1251 1453 1294 1437T1368 1390T1417 1316T1435 1220Q1435 1137 1399 1059T1297 909T1139 773T933 653Q1000 530 1053 443T1150 296T1229 201T1293 148T1349 125T1401 119Q1453 119 1509 135T1622 177L1641 125Q1605 96 1550
66T1434 11T1312 -29T1205 -45Q1151 -45 1098 -6T983 117T847 327T677 632L681 644Z" />
<glyph unicode="l" glyph-name="l" horiz-adv-x="793" d="M612 2684Q592 2514 573 2336T536 1975T503 1608T477 1246T460 895T454 565Q454 466 456 395T464 275T479 196T503 150T536 129T581 123Q629 123 684 137T797 178L816 126Q780 97 726 67T611 12T494 -28T394
-44Q340 -44 309 -17T261 73T240 234T235 477Q235 529 238 625T246 850T259 1130T274 1444T291 1772T309 2092T326 2384T341 2626Q342 2650 355 2667T388 2695T434 2711T486 2716Q546 2716 612 2684Z" />
<glyph unicode="m" glyph-name="m" horiz-adv-x="2535" d="M-5 1329Q66 1354 131 1374T252 1410T349 1433T415 1441Q473 1441 505 1407T538 1288Q538 1268 534 1203T523 1038T504 812T479 542L485 541Q555 795 634 967T795 1246T960 1397T1121 1443Q1190 1443
1238 1409T1316 1320T1360 1196T1374 1054Q1374 991 1370 921T1360 782T1348 652T1336 544L1342 543Q1412 801 1491 975T1653 1256T1819 1407T1980 1453Q2030 1453 2077 1432T2160 1365T2219 1245T2241 1069Q2241 1040 2238 990T2229 877T2218 746T2206 609T2198
482T2194 377Q2194 299 2200 250T2222 173T2262 134T2323 123Q2375 123 2431 137T2544 178L2563 126Q2527 97 2472 67T2357 12T2236 -28T2130 -44Q2076 -44 2045 -15T1999 64T1979 181T1974 325Q1974 418 1980 520T1995 714T2009 880T2016 993Q2016 1102 1978 1156T1873
1211Q1822 1211 1765 1163T1650 1029T1539 829T1442 578T1370 296T1331 0L1122 -26L1106 -25Q1117 185 1126 347T1143 630T1155 835T1160 974Q1160 1086 1122 1143T1023 1200Q970 1200 912 1153T796 1021T687 823T592 575T521 295T483 0L274 -26L258 -25Q266 70
273 182T286 409T296 638T304 850T309 1027T311 1150Q311 1191 305 1219T287 1263T255 1287T210 1294Q174 1294 124 1284T10 1257L-5 1329Z" />
<glyph unicode="n" glyph-name="n" horiz-adv-x="1757" d="M311 1150Q311 1191 305 1219T287 1263T255 1287T210 1294Q174 1294 124 1284T10 1257L-5 1329Q66 1354 131 1374T252 1410T349 1433T415 1441Q473 1441 505 1407T538 1288Q538 1278 536 1242T531 1149T522
1021T511 866T496 697T479 522L485 521Q561 779 648 956T825 1244T1004 1404T1174 1453Q1230 1453 1282 1432T1374 1365T1439 1247T1463 1071Q1463 1041 1460 991T1451 878T1440 747T1428 610T1420 483T1416 377Q1416 299 1422 250T1444 173T1484 134T1545 123Q1597
123 1653 137T1766 178L1785 126Q1749 97 1694 67T1579 12T1458 -28T1352 -44Q1298 -44 1267 -15T1221 64T1201 181T1196 325Q1196 419 1202 518T1217 708T1231 871T1238 989Q1238 1106 1194 1161T1077 1217Q1019 1217 955 1168T828 1034T706 832T600 580T522 296T483
0L274 -26L258 -25Q266 70 273 182T286 409T296 638T304 850T309 1027T311 1150Z" />
<glyph unicode="o" glyph-name="o" horiz-adv-x="1455" d="M114 575Q114 676 135 780T197 981T298 1164T438 1314T614 1415T825 1452Q953 1452 1051 1398T1217 1256T1318 1054T1353 823Q1353 722 1332 618T1270 417T1168 234T1028 84T852 -17T641 -54Q513 -54
415 0T250 142T149 344T114 575ZM353 670Q353 602 363 532T396 397T450 276T527 177T627 111T750 87Q823 87 878 118T974 202T1041 321T1084 459T1106 601T1113 730Q1113 799 1103 868T1070 1002T1016 1123T939 1221T839 1287T716 1311Q643 1311 588 1280T492 1197T425
1078T382 940T360 799T353 670Z" />
<glyph unicode="p" glyph-name="p" horiz-adv-x="1693" d="M-36 1334Q76 1368 155 1389T287 1422T371 1438T417 1443Q442 1443 464 1436T502 1410T528 1362T537 1286Q537 1271 536 1227T530 1106T520 916T503 651L515 650Q593 844 683 993T867 1245T1054 1399T1231
1452Q1299 1452 1351 1427T1441 1359T1506 1261T1548 1145T1571 1022T1578 906Q1578 759 1548 631T1466 397T1343 206T1190 65T1017 -23T835 -54Q738 -54 646 -19T473 97Q462 -154 451 -421T439 -980L229 -1004L208 -1003Q223 -816 236 -611T260 -198T280 209T295
586T304 905T308 1143Q308 1181 304 1209T289 1257T255 1285T197 1295Q160 1295 107 1287T-21 1260L-36 1334ZM482 206Q567 134 651 100T821 66Q933 66 1027 113T1190 255T1297 487T1336 809Q1336 877 1326 949T1293 1079T1234 1175T1145 1213Q1084 1213 1024 1182T908
1097T799 971T701 819T617 653T551 486T505 333T482 206Z" />
<glyph unicode="q" glyph-name="q" horiz-adv-x="1599" d="M1302 -455Q1302 -584 1307 -660T1328 -777T1368 -830T1432 -843Q1480 -843 1557 -825T1730 -763L1753 -820Q1720 -840 1677 -862T1586 -905T1489 -946T1394 -980T1312 -1003T1250 -1012Q1196 -1012 1165
-990T1118 -912T1097 -765T1092 -535Q1092 -436 1095 -323T1103 -91T1116 147T1132 378T1148 587T1165 761L1155 763Q1089 565 1004 413T828 157T646 0T477 -54Q383 -54 316 -10T205 106T140 274T119 471Q119 607 149 731T232 961T356 1155T511 1303T685 1398T868
1432Q953 1432 1026 1402T1172 1312L1175 1374Q1178 1423 1210 1446T1300 1469Q1332 1469 1360 1462T1424 1438Q1413 1361 1402 1257T1381 1032T1360 776T1342 503T1326 229T1313 -31T1305 -264T1302 -455ZM1170 1206Q1131 1237 1096 1257T1029 1290T966 1308T903
1314Q822 1314 751 1287T619 1209T511 1090T430 939T379 763T361 570Q361 538 364 497T375 413T398 328T434 253T488 200T562 180Q634 180 705 229T841 361T964 549T1065 770T1136 997T1170 1206Z" />
<glyph unicode="r" glyph-name="r" horiz-adv-x="1208" d="M274 -26L258 -25Q266 70 273 182T286 409T296 638T304 850T309 1027T311 1150Q311 1187 308 1214T295 1259T264 1285T210 1294Q193 1294 175 1292T135 1286T86 1276T22 1260L7 1332Q173 1392 276 1416T415
1441Q481 1441 509 1403T538 1288Q538 1281 536 1247T531 1159T522 1032T511 878T496 706T479 527L489 526Q537 722 597 891T733 1186T899 1382T1098 1454Q1136 1454 1169 1442T1226 1409T1264 1358T1278 1293Q1278 1248 1259 1207T1197 1133H1189Q1147 1168 1110
1183T1030 1199Q985 1199 943 1182T866 1133Q809 1081 760 996T671 806T598 588T542 365T504 161T483 0L274 -26Z" />
<glyph unicode="s" glyph-name="s" horiz-adv-x="1186" d="M270 361Q277 285 310 230T393 140T501 88T620 71Q675 71 726 86T816 129T878 198T902 290Q902 343 877 383T810 456T713 517T597 574Q544 599 491 624T387 680T294 745T218 822T167 917T148 1034Q148
1103 172 1161T237 1265T333 1347T450 1405T577 1440T705 1452Q785 1452 856 1435T981 1384T1066 1302T1098 1194Q1098 1171 1090 1144T1063 1094T1013 1054T937 1037Q895 1037 849 1050L846 1060Q860 1092 866 1119T872 1169Q871 1215 849 1246T792 1298T717 1327T635
1336Q564 1336 508 1317T414 1267T355 1195T334 1112Q334 1057 363 1014T440 934T550 865T681 801Q757 765 832 727T966 639T1061 527T1098 377Q1098 274 1053 194T931 59T757 -24T552 -53Q499 -53 443 -45T333 -21T233 18T150 72T94 140T73 223Q73 262 89 289T133
333T193 358T262 368L270 361Z" />
<glyph unicode="t" glyph-name="t" horiz-adv-x="993" d="M639 2162Q597 1972 569 1770T520 1370Q567 1368 611 1367T694 1365T764 1364T817 1364Q908 1364 966 1375Q971 1358 974 1344T977 1318Q977 1274 941 1261T835 1248Q769 1248 688 1256T509 1271Q498 1164
491 1063T479 871T472 704T470 570Q470 463 481 379T520 237T597 147T721 116Q775 116 841 135T993 196Q1020 169 1024 130Q962 89 899 56T775 -2T657 -39T549 -52Q482 -52 427 -28T331 59T268 228T245 496Q245 587 248 683T256 879T269 1077T287 1272Q208 1271
141 1266T25 1248Q22 1254 22 1262Q22 1283 42 1301T99 1335T187 1360T299 1374Q322 1583 348 1769T400 2101Q405 2127 418 2144T450 2171T489 2185T530 2189Q563 2189 589 2182T639 2162Z" />
<glyph unicode="u" glyph-name="u" horiz-adv-x="1703" d="M535 1252Q535 1184 531 1107T520 949T506 790T492 639T481 509T476 409Q476 290 521 235T641 180Q726 180 815 271T985 539Q1066 715 1123 934T1196 1408L1408 1434L1424 1433Q1415 1338 1408 1232T1394
1019T1385 810T1382 622Q1382 459 1401 356T1450 193T1518 111T1596 88Q1619 88 1641 94T1684 108T1720 127T1749 145L1782 99Q1753 69 1716 43T1638 -3T1552 -34T1461 -45Q1403 -45 1349 -22T1252 55T1185 199T1159 423Q1159 466 1161 510T1167 603T1177 708T1193
833L1182 835Q1114 584 1035 414T872 140T704 -8T544 -53Q487 -53 435 -34T341 30T276 148T251 328Q251 398 259 490T276 687T294 903T302 1124Q302 1168 299 1200T286 1253T257 1284T203 1294Q169 1294 115 1284T0 1257L-15 1329Q67 1358 137 1379T263 1415T357
1436T414 1443Q450 1443 473 1430T510 1392T529 1332T535 1252Z" />
<glyph unicode="v" glyph-name="v" horiz-adv-x="1329" d="M475 -35Q462 61 444 166T406 379T363 592T318 792T274 967T235 1105Q216 1164 199 1201T164 1260T123 1290T73 1298Q41 1298 5 1291T-83 1272L-98 1344Q-38 1366 19 1384T126 1416T213 1436T273 1443Q300
1443 322 1434T366 1401T406 1339T444 1239Q457 1199 474 1136T511 991T550 816T590 620T625 415T654 209Q704 282 754 360T851 518T938 679T1008 841T1055 998T1072 1147Q1072 1237 1041 1316T933 1455L944 1479Q962 1481 979 1482T1012 1483Q1146 1483 1214 1420T1282
1245Q1282 1160 1246 1052T1151 824T1017 582T864 343T712 128T581 -46L475 -35Z" />
<glyph unicode="w" glyph-name="w" horiz-adv-x="2012" d="M1197 -33Q1169 157 1129 360T1041 770Q1014 709 979 640T905 497T822 349T737 204T653 69T574 -47L465 -35Q452 61 435 166T397 379T356 591T313 788T271 960T234 1094Q214 1158 197 1198T161 1260T121
1290T73 1298Q41 1298 5 1291T-83 1272L-98 1344Q36 1392 134 1417T274 1443Q299 1443 321 1434T364 1403T403 1343T440 1247Q453 1205 470 1142T505 1001T544 831T583 642T619 443T651 241Q673 275 702 325T762 433T825 552T884 672T931 780T960 865Q966 889 968
912T971 959Q971 990 967 1025T957 1097T942 1169T926 1237Q919 1264 919 1280Q919 1312 939 1329T1008 1347Q1040 1347 1073 1339T1136 1315Q1168 1191 1201 1055T1267 779T1329 502T1381 237Q1451 348 1518 464T1638 695T1723 925T1755 1147Q1755 1192 1749 1234T1729
1316T1689 1390T1626 1455L1637 1479Q1655 1481 1672 1482T1705 1483Q1838 1483 1901 1420T1965 1245Q1965 1160 1932 1053T1843 827T1717 587T1574 349T1430 133T1304 -45L1197 -33Z" />
<glyph unicode="x" glyph-name="x" horiz-adv-x="1581" d="M114 1341Q183 1364 245 1383T358 1415T446 1436T505 1443Q536 1443 563 1434T616 1399T666 1327T716 1208Q746 1120 776 1042T834 885Q898 1012 961 1116T1089 1294T1220 1408T1357 1449Q1402 1449 1436
1436T1493 1400T1528 1349T1540 1288Q1540 1246 1519 1205T1455 1134H1447Q1429 1156 1410 1169T1370 1190T1331 1200T1293 1203Q1234 1203 1180 1170T1074 1077T975 936T878 759Q925 630 964 532T1039 363T1107 243T1174 166T1245 125T1326 113Q1356 113 1381
115T1431 121T1483 134T1543 154L1563 97Q1515 64 1460 37T1349 -10T1240 -40T1140 -51Q1075 -51 1024 -20T926 80T832 255T728 512Q657 386 588 281T448 101T308 -17T165 -59Q121 -59 88 -47T33 -15T0 31T-12 87Q-12 121 3 156T48 223Q102 203 144 195T222 187Q286
187 345 219T460 309T571 451T682 636Q664 684 646 735T606 842T562 962T513 1098Q490 1159 468 1197T420 1258T365 1288T299 1296Q267 1296 224 1289T129 1270L114 1341Z" />
<glyph unicode="y" glyph-name="y" horiz-adv-x="1357" d="M568 -9Q542 86 513 190T453 399T392 606T333 800T279 970T233 1106Q212 1165 193 1202T152 1261T108 1290T57 1298Q25 1298 -11 1291T-99 1272L-114 1344Q-54 1366 3 1384T110 1415T197 1435T257 1442Q283
1442 306 1433T352 1402T396 1340T438 1240Q452 1202 471 1143T514 1008T563 843T615 658T668 460T718 260Q768 391 822 533T933 820T1046 1105T1154 1376Q1163 1398 1178 1412T1213 1434T1252 1446T1293 1450Q1326 1450 1357 1441T1416 1417Q1371 1344 1323 1255T1223
1064T1121 852T1018 628T918 398T822 170Q775 57 733 -53T651 -267T573 -466T494 -645Q456 -722 413 -788T318 -903T204 -980T65 -1008Q18 -1008 -20 -996T-84 -963T-125 -915T-139 -858Q-139 -825 -120 -790T-68 -736Q-26 -762 17 -773T94 -784Q176 -784 239 -740T359
-606T471 -383T597 -69L617 -16L568 -9Z" />
<glyph unicode="z" glyph-name="z" horiz-adv-x="1368" d="M61 13Q84 53 130 116T239 259T374 427T525 608T679 787T824 952T948 1089T1039 1185L1033 1192Q991 1183 942 1179T847 1174Q779 1174 717 1179T604 1190T513 1201T453 1206Q410 1206 375 1194T314 1154T272
1077T249 957L173 959Q174 1013 175 1068T184 1175T207 1272T250 1351T323 1404T431 1424Q483 1424 548 1417T686 1402T835 1387T983 1380Q1061 1380 1131 1392T1250 1433L1306 1387Q1286 1343 1245 1281T1149 1143T1026 982T886 810T739 636T594 470T460 322T348
202L356 195Q375 203 399 210T450 222T501 229T548 232Q611 232 673 223T794 202T907 182T1009 172Q1054 172 1092 184T1161 226T1211 309T1239 442L1313 436Q1311 292 1289 198T1228 50T1136 -26T1020 -48Q954 -48 880 -32T726 5T564 41T402 58Q327 58 258 38T124
-33L61 13Z" />
<glyph unicode="{" glyph-name="braceleft" horiz-adv-x="1111" d="M142 1078Q228 1089 290 1109T392 1165T451 1255T470 1390Q470 1448 464 1526T449 1689T434 1863T427 2030Q427 2157 456 2274T550 2481T717 2625T963 2679H991Q999 2679 1006 2679T1021 2677L1013
2572Q1008 2573 1002 2573T991 2573H970Q886 2573 825 2550T724 2476T664 2349T644 2163Q644 2099 649 2032T661 1895T672 1757T678 1619Q678 1521 665 1429T615 1260T515 1125T348 1035V1027Q443 996 504 944T599 821T647 667T660 488Q660 401 651 314T632 143T612
-23T603 -183Q603 -284 623 -355T682 -473T779 -541T916 -563H937Q942 -563 948 -563T959 -562L963 -667Q955 -668 948 -668T933 -669H905Q768 -669 671 -618T512 -481T420 -281T391 -44Q391 15 396 79T408 210T424 343T440 470T453 587T458 688Q458 764 439 815T380
901T280 954T140 984L142 1078Z" />
<glyph unicode="|" glyph-name="bar" horiz-adv-x="1149" d="M649 -955L522 -969L500 -968V2645Q500 2655 507 2663T525 2676T551 2683T579 2686Q613 2686 649 2671V-955Z" />
<glyph unicode="}" glyph-name="braceright" horiz-adv-x="1112" d="M981 984Q896 973 834 953T732 895T671 803T651 666Q651 607 657 527T672 357T687 177T694 3Q694 -84 681 -167T641 -325T571 -463T469 -572T332 -643T158 -669H129Q122 -669 115 -669T100 -667L108
-562Q113 -563 118 -563T129 -563H151Q317 -563 397 -462T478 -143Q478 -76 473 -5T461 139T449 285T443 431Q443 531 457 625T508 798T609 936T773 1027L774 1035Q678 1065 617 1116T522 1236T474 1388T461 1563Q461 1644 470 1726T490 1889T510 2049T519 2203Q519
2398 440 2485T205 2573H183Q178 2573 173 2573T162 2572L158 2677Q166 2678 173 2678T187 2679H216Q307 2679 380 2657T511 2593T609 2496T677 2373T717 2230T730 2074Q730 2017 725 1954T713 1825T697 1696T681 1573T668 1461T663 1367Q663 1293 682 1243T742
1159T841 1108T982 1078L981 984Z" />
<glyph unicode="~" glyph-name="asciitilde" horiz-adv-x="1505" d="M91 610Q90 615 90 625V641Q90 716 117 768T189 854T289 902T403 917Q464 917 528 904T656 869T783 825T904 780T1017 746T1117 732Q1214 732 1279 769T1386 891L1414 886Q1415 882 1415 878T1415
870V855Q1415 780 1388 728T1317 644T1216 598T1103 583Q1042 583 978 596T850 631T723 675T602 720T489 754T389 768Q289 768 223 729T119 605L91 610Z" />
</font>
</defs>
</svg>
